<svg xmlns="http://www.w3.org/2000/svg"><style>:root svg:not(:target){display:none}</style><svg fill="none" id="basket-button" viewBox="0 0 20 16"><path fill-rule="evenodd" clip-rule="evenodd" d="m13.674 13.522.003-.022h1.347l-.03.21a2.667 2.667 0 0 1-2.64 2.29H3.646a2.667 2.667 0 0 1-2.64-2.29L.19 8 0 6.667h4.556l-.224-2.68A3.68 3.68 0 0 1 11.618 3h-1.37a2.348 2.348 0 0 0-4.587.875l.233 2.792H9.5V8H6.058l.222 2.667h3.44l.014-.167h1.338l-.014.167H12.5V12h-1.553l-.222 2.667h1.629c.663 0 1.226-.488 1.32-1.145ZM4.72 8H1.537l.381 2.667h3.024L4.72 8Zm1.893 6.667L6.391 12H9.61l-.222 2.667H6.613ZM5.053 12l.222 2.667H3.646a1.333 1.333 0 0 1-1.32-1.145L2.11 12h2.944ZM15.8 10V7.2H13V5.8h2.8V3h1.4v2.8H20v1.4h-2.8V10h-1.4Z" fill="#fff"></path></svg><svg fill="none" id="basket" viewBox="0 0 16 16"><path fill="#333" fill-rule="evenodd" d="m5.66 3.875.234 2.792h4.213l.232-2.792a2.347 2.347 0 1 0-4.678 0Zm5.784 2.792.224-2.68a3.68 3.68 0 1 0-7.336 0l.224 2.68H0L.19 8l.816 5.71A2.667 2.667 0 0 0 3.646 16h8.708a2.667 2.667 0 0 0 2.64-2.29L15.81 8 16 6.667h-4.556ZM11.334 8h-.054l-.222 2.667h3.024L14.462 8h-3.129ZM9.941 8H6.058l.222 2.667h3.44L9.942 8ZM4.72 8H1.537l.381 2.667h3.024L4.72 8Zm1.893 6.667L6.391 12H9.61l-.222 2.667H6.613ZM10.947 12l-.222 2.667h1.629c.663 0 1.226-.488 1.32-1.145L13.89 12h-2.944Zm-5.894 0 .222 2.667H3.646a1.333 1.333 0 0 1-1.32-1.145L2.11 12h2.944Z" clip-rule="evenodd"></path></svg><svg fill="none" id="burger" viewBox="0 0 16 16"><path fill="#333" fill-rule="evenodd" d="M0 2h16v1.5H0V2Zm0 5.25h16v1.5H0v-1.5Zm16 5.25H0V14h16v-1.5Z" clip-rule="evenodd"></path></svg><svg fill="none" id="cross" viewBox="0 0 16 16"><path fill="#333" fill-rule="evenodd" d="M7.025 8 2 2.975 2.975 2 8 7.025 13.025 2l.975.975L8.975 8 14 13.025l-.975.975L8 8.975 2.975 14 2 13.025 7.025 8Z" clip-rule="evenodd"></path></svg><svg fill="none" id="login" viewBox="0 0 16 16"><path fill="#333" fill-rule="evenodd" d="M10.667 4a2.667 2.667 0 1 1-5.334 0 2.667 2.667 0 0 1 5.334 0ZM12 4a4 4 0 1 1-8 0 4 4 0 0 1 8 0Zm-8.803 8.31C4.437 11.277 6.16 10.667 8 10.667s3.564.61 4.803 1.643c1.232 1.027 1.864 2.362 1.864 3.69H16c0-1.768-.843-3.464-2.343-4.714-1.5-1.25-3.535-1.953-5.657-1.953s-4.157.703-5.657 1.953S0 14.232 0 16h1.333c0-1.328.632-2.663 1.864-3.69Z" clip-rule="evenodd"></path></svg><svg fill="none" id="slider-arrow-next" viewBox="0 0 20 20"><path fill="#7859CF" fill-rule="evenodd" d="M6.283 0 5 1.32 13.433 10 5 18.68 6.283 20 16 10 6.283 0Z" clip-rule="evenodd"></path></svg><svg fill="none" id="slider-arrow-prev" viewBox="0 0 20 20"><path fill="#7859CF" fill-rule="evenodd" d="M13.717 0 15 1.32 6.567 10 15 18.68 13.717 20 4 10l9.717-10Z" clip-rule="evenodd"></path></svg></svg>